<mxfile host="app.diagrams.net" modified="2021-04-27T18:38:31.217Z" agent="5.0 (Windows NT 10.0; Win64; x64) AppleWebKit/537.36 (KHTML, like Gecko) Chrome/90.0.4430.93 Safari/537.36" etag="jz3WesF4nv2o6XoYC4U5" version="14.6.6" type="github">
  <diagram id="prtHgNgQTEPvFCAcTncT" name="Page-1">
    <mxGraphModel dx="716" dy="383" grid="1" gridSize="10" guides="1" tooltips="1" connect="1" arrows="1" fold="1" page="1" pageScale="1" pageWidth="827" pageHeight="1169" math="0" shadow="0">
      <root>
        <mxCell id="0" />
        <mxCell id="1" parent="0" />
        <mxCell id="4xmRyvGzu3ehN-zr2d3g-1" value="Manager" style="rounded=1;whiteSpace=wrap;html=1;fontStyle=1;fontSize=17;" vertex="1" parent="1">
          <mxGeometry x="310" y="90" width="180" height="130" as="geometry" />
        </mxCell>
        <mxCell id="4xmRyvGzu3ehN-zr2d3g-2" value="Ð¡ook" style="rounded=1;whiteSpace=wrap;html=1;fontStyle=1;fontSize=17;arcSize=20;" vertex="1" parent="1">
          <mxGeometry x="80" y="300" width="180" height="130" as="geometry" />
        </mxCell>
        <mxCell id="4xmRyvGzu3ehN-zr2d3g-3" value="Waiter (Seller)" style="rounded=1;whiteSpace=wrap;html=1;fontStyle=1;fontSize=17;arcSize=20;" vertex="1" parent="1">
          <mxGeometry x="310" y="300" width="180" height="130" as="geometry" />
        </mxCell>
        <mxCell id="4xmRyvGzu3ehN-zr2d3g-4" value="Cleaner" style="rounded=1;whiteSpace=wrap;html=1;fontStyle=1;fontSize=17;arcSize=20;" vertex="1" parent="1">
          <mxGeometry x="540" y="300" width="180" height="130" as="geometry" />
        </mxCell>
      </root>
    </mxGraphModel>
  </diagram>
</mxfile>
